<?xml version="1.0" encoding="utf-8"?>
<!-- Generator: Adobe Illustrator 16.0.0, SVG Export Plug-In . SVG Version: 6.00 Build 0)  -->
<!DOCTYPE svg PUBLIC "-//W3C//DTD SVG 1.1//EN" "http://www.w3.org/Graphics/SVG/1.1/DTD/svg11.dtd">
<svg version="1.1" id="Layer_1" xmlns="http://www.w3.org/2000/svg" xmlns:xlink="http://www.w3.org/1999/xlink" x="0px" y="0px"
	 width="250px" height="200px" viewBox="0 0 250 200" enable-background="new 0 0 250 200" xml:space="preserve">
<g>
	<path fill="#110D3D" d="M226.869,172.18c-0.438,0-0.802-0.136-1.091-0.4c-0.295-0.267-0.439-0.6-0.439-0.994
		c0-0.404,0.15-0.735,0.448-0.994c0.303-0.258,0.676-0.387,1.125-0.387c0.458,0,0.824,0.131,1.115,0.395
		c0.288,0.259,0.432,0.588,0.432,0.986c0,0.41-0.148,0.745-0.439,1.008C227.724,172.055,227.342,172.18,226.869,172.18
		 M216.812,162.117v7.651h1.349c1.179,0,2.1-0.354,2.771-1.063c0.673-0.706,1.007-1.668,1.007-2.888
		c0-1.149-0.332-2.055-0.997-2.714c-0.664-0.658-1.595-0.986-2.797-0.986H216.812z M214.093,171.973v-12.069h4.277
		c4.287,0,6.428,1.963,6.428,5.884c0,1.88-0.583,3.378-1.753,4.502c-1.17,1.122-2.728,1.684-4.675,1.684H214.093z M212.469,162.117
		h-3.443v9.855h-2.727v-9.855h-3.424v-2.214h9.594V162.117z M203.505,171.973h-7.186v-12.069h2.718v9.865h4.468V171.973z
		 M187.819,172.18c-0.439,0-0.802-0.136-1.094-0.4c-0.292-0.267-0.438-0.6-0.438-0.994c0-0.404,0.149-0.735,0.449-0.994
		c0.303-0.258,0.677-0.387,1.123-0.387c0.457,0,0.827,0.131,1.115,0.395c0.29,0.259,0.434,0.588,0.434,0.986
		c0,0.41-0.149,0.745-0.439,1.008C188.671,172.055,188.29,172.18,187.819,172.18z M184.544,171.164
		c-1.179,0.679-2.644,1.016-4.395,1.016c-1.94,0-3.471-0.536-4.59-1.61c-1.12-1.073-1.68-2.554-1.68-4.438
		c0-1.896,0.61-3.443,1.836-4.635c1.223-1.199,2.849-1.797,4.88-1.797c1.279,0,2.408,0.177,3.384,0.531v2.551
		c-0.933-0.54-2.069-0.807-3.418-0.807c-1.128,0-2.044,0.366-2.754,1.098c-0.712,0.733-1.067,1.708-1.067,2.932
		c0,1.237,0.32,2.199,0.954,2.881c0.641,0.678,1.499,1.019,2.581,1.019c0.652,0,1.171-0.096,1.549-0.279v-2.359h-2.413v-2.17h5.133
		V171.164z M171.897,171.973h-2.722v-12.069h2.722V171.973z M166.414,171.973h-2.741l-4.973-7.582
		c-0.291-0.444-0.495-0.777-0.606-1.002h-0.033c0.042,0.424,0.064,1.077,0.064,1.952v6.632h-2.564v-12.069h2.93l4.787,7.347
		c0.218,0.335,0.419,0.659,0.605,0.984h0.036c-0.045-0.275-0.068-0.833-0.068-1.658v-6.673h2.563V171.973z M140.591,171.513v-2.696
		c0.486,0.408,1.017,0.717,1.59,0.923c0.572,0.201,1.146,0.307,1.73,0.307c0.346,0,0.645-0.032,0.896-0.092
		c0.257-0.067,0.471-0.149,0.645-0.263c0.169-0.106,0.298-0.237,0.379-0.381c0.087-0.149,0.128-0.314,0.128-0.488
		c0-0.235-0.067-0.446-0.202-0.628c-0.136-0.186-0.32-0.358-0.554-0.514c-0.229-0.155-0.508-0.313-0.83-0.454
		c-0.316-0.146-0.662-0.295-1.031-0.451c-0.942-0.388-1.646-0.864-2.107-1.435c-0.465-0.565-0.695-1.249-0.695-2.054
		c0-0.63,0.126-1.168,0.378-1.616c0.251-0.455,0.596-0.827,1.03-1.122c0.439-0.287,0.938-0.504,1.511-0.644
		c0.572-0.136,1.18-0.205,1.82-0.205c0.627,0,1.185,0.039,1.67,0.113c0.486,0.075,0.932,0.195,1.344,0.351v2.517
		c-0.205-0.142-0.425-0.263-0.662-0.368s-0.484-0.195-0.737-0.27c-0.254-0.067-0.505-0.119-0.754-0.155
		c-0.25-0.034-0.486-0.046-0.711-0.046c-0.307,0-0.588,0.026-0.839,0.082c-0.252,0.063-0.468,0.146-0.64,0.253
		c-0.176,0.105-0.309,0.231-0.405,0.385c-0.097,0.146-0.14,0.311-0.14,0.496c0,0.205,0.05,0.389,0.155,0.544
		c0.104,0.161,0.258,0.311,0.457,0.456c0.194,0.14,0.432,0.281,0.717,0.419c0.276,0.14,0.597,0.28,0.948,0.424
		c0.482,0.201,0.915,0.417,1.299,0.646c0.385,0.229,0.715,0.484,0.99,0.77c0.274,0.287,0.485,0.616,0.629,0.984
		c0.149,0.364,0.22,0.791,0.22,1.279c0,0.676-0.126,1.237-0.384,1.7c-0.254,0.452-0.598,0.826-1.038,1.105
		c-0.438,0.285-0.946,0.49-1.526,0.614c-0.583,0.125-1.193,0.181-1.841,0.181c-0.66,0-1.289-0.052-1.888-0.165
		C141.546,171.903,141.024,171.733,140.591,171.513z M139.521,162.117h-3.447v9.855h-2.725v-9.855h-3.423v-2.214h9.595V162.117z
		 M128.94,171.544c-0.881,0.425-2.032,0.636-3.452,0.636c-1.849,0-3.307-0.542-4.365-1.63c-1.063-1.086-1.593-2.538-1.593-4.35
		c0-1.934,0.597-3.497,1.789-4.701c1.19-1.197,2.74-1.799,4.64-1.799c1.179,0,2.173,0.149,2.981,0.448v2.618
		c-0.809-0.484-1.726-0.724-2.761-0.724c-1.133,0-2.048,0.353-2.743,1.068c-0.694,0.711-1.044,1.676-1.044,2.894
		c0,1.165,0.329,2.096,0.986,2.789c0.656,0.691,1.539,1.041,2.652,1.041c1.059,0,2.028-0.26,2.909-0.775V171.544z M118.354,171.973
		h-7.24v-12.069h6.962v2.214h-4.241v2.684h3.948v2.204h-3.948v2.764h4.52V171.973z M108.472,167.185c0,1.616-0.373,2.852-1.124,3.71
		c-0.746,0.859-1.832,1.285-3.251,1.285c-0.635,0-1.222-0.109-1.758-0.322v-2.553c0.463,0.351,0.984,0.53,1.564,0.53
		c1.239,0,1.86-0.921,1.86-2.761v-7.171h2.708V167.185z M95.757,162.043c-0.955,0-1.712,0.353-2.272,1.07
		c-0.56,0.718-0.842,1.662-0.842,2.84c0,1.197,0.282,2.138,0.842,2.841c0.56,0.691,1.295,1.041,2.203,1.041
		c0.939,0,1.68-0.339,2.231-1.015c0.549-0.676,0.825-1.614,0.825-2.815c0-1.254-0.267-2.224-0.799-2.926
		C97.412,162.388,96.682,162.043,95.757,162.043z M95.64,172.18c-1.729,0-3.137-0.56-4.226-1.686
		c-1.088-1.124-1.631-2.589-1.631-4.397c0-1.905,0.552-3.447,1.657-4.629c1.106-1.174,2.568-1.768,4.393-1.768
		c1.724,0,3.118,0.563,4.179,1.689c1.064,1.134,1.596,2.62,1.596,4.466c0,1.895-0.553,3.425-1.654,4.583
		C98.852,171.6,97.412,172.18,95.64,172.18z M82.176,161.941v3.355h1.176c0.584,0,1.052-0.169,1.405-0.504
		c0.359-0.341,0.54-0.767,0.54-1.271c0-1.054-0.632-1.58-1.895-1.58H82.176z M89.582,171.973h-3.123l-1.876-3.104
		c-0.14-0.237-0.275-0.446-0.405-0.634c-0.129-0.184-0.257-0.343-0.389-0.475c-0.133-0.133-0.27-0.23-0.414-0.305
		c-0.144-0.065-0.298-0.104-0.465-0.104h-0.732v4.621h-2.721v-12.069h4.309c2.93,0,4.396,1.094,4.396,3.279
		c0,0.421-0.066,0.813-0.197,1.168c-0.129,0.354-0.309,0.676-0.546,0.967c-0.235,0.285-0.52,0.53-0.853,0.735
		c-0.335,0.213-0.707,0.372-1.117,0.492v0.031c0.182,0.056,0.354,0.147,0.523,0.275c0.17,0.126,0.331,0.272,0.488,0.44
		c0.159,0.169,0.308,0.353,0.452,0.544c0.143,0.193,0.272,0.383,0.39,0.57L89.582,171.973z M71.586,161.991v3.761h1.069
		c1.448,0,2.172-0.636,2.172-1.899c0-1.243-0.725-1.861-2.172-1.861H71.586z M71.586,167.816v4.156h-2.72v-12.069h4.259
		c3.043,0,4.563,1.279,4.563,3.848c0,1.214-0.437,2.189-1.31,2.943c-0.874,0.743-2.038,1.122-3.497,1.122H71.586z M59.561,168.125
		c0-1.298-0.532-1.947-1.592-1.947c-0.241,0-0.459,0.048-0.658,0.138c-0.194,0.09-0.361,0.215-0.502,0.381
		c-0.14,0.161-0.25,0.354-0.325,0.576c-0.075,0.219-0.115,0.464-0.115,0.736c0,0.298,0.041,0.572,0.118,0.831
		c0.081,0.26,0.191,0.488,0.334,0.68c0.143,0.193,0.312,0.345,0.508,0.458c0.199,0.112,0.416,0.168,0.657,0.168
		c0.242,0,0.458-0.05,0.652-0.149c0.192-0.092,0.359-0.235,0.497-0.411c0.139-0.177,0.242-0.386,0.316-0.639
		C59.524,168.696,59.561,168.422,59.561,168.125z M62.161,167.959c0,0.597-0.104,1.15-0.311,1.666
		c-0.209,0.515-0.496,0.965-0.867,1.342c-0.371,0.378-0.809,0.677-1.321,0.891c-0.511,0.221-1.068,0.322-1.675,0.322
		c-0.677,0-1.287-0.125-1.821-0.376c-0.537-0.25-0.991-0.618-1.361-1.099c-0.368-0.479-0.652-1.069-0.849-1.762
		c-0.198-0.697-0.296-1.484-0.296-2.367c0-1.036,0.126-1.979,0.382-2.823s0.621-1.566,1.095-2.168
		c0.475-0.598,1.049-1.063,1.721-1.391c0.676-0.329,1.431-0.494,2.272-0.494c0.935,0,1.655,0.113,2.173,0.332v2.221
		c-0.612-0.352-1.28-0.524-2.002-0.524c-0.45,0-0.857,0.09-1.221,0.263c-0.365,0.172-0.678,0.421-0.94,0.737
		c-0.258,0.323-0.466,0.708-0.611,1.162c-0.149,0.448-0.23,0.956-0.242,1.51h0.052c0.571-0.793,1.416-1.188,2.531-1.188
		c0.5,0,0.953,0.09,1.356,0.27c0.404,0.179,0.75,0.431,1.036,0.763c0.286,0.329,0.507,0.72,0.664,1.18
		C62.083,166.89,62.161,167.397,62.161,167.959z M47.912,161.729c-1.15,0-1.723,1.444-1.723,4.334c0,2.724,0.562,4.083,1.688,4.083
		c1.101,0,1.651-1.401,1.651-4.209C49.528,163.133,48.989,161.729,47.912,161.729z M47.794,172.18c-2.874,0-4.311-2.019-4.311-6.048
		c0-2.094,0.389-3.687,1.167-4.784c0.775-1.1,1.905-1.647,3.379-1.647c2.806,0,4.208,2.052,4.208,6.155
		c0,2.04-0.383,3.608-1.15,4.694C50.326,171.638,49.224,172.18,47.794,172.18z M35.699,167.507h2.879v-4.214
		c-0.194,0.364-0.408,0.735-0.637,1.109c-0.231,0.373-0.472,0.743-0.726,1.104c-0.251,0.36-0.508,0.709-0.765,1.05
		C36.19,166.896,35.94,167.216,35.699,167.507z M41.002,159.903v7.604h1.447v1.993h-1.447v2.473h-2.424V169.5h-5.26v-2.081
		c0.465-0.523,0.948-1.092,1.448-1.713c0.5-0.62,0.982-1.258,1.448-1.915c0.466-0.654,0.9-1.315,1.302-1.983
		c0.399-0.661,0.74-1.299,1.023-1.904H41.002z M30.079,159.634v12.339h-2.65v-9.342c-0.146,0.128-0.319,0.247-0.52,0.363
		c-0.199,0.117-0.41,0.223-0.635,0.313c-0.224,0.094-0.457,0.171-0.698,0.239c-0.242,0.058-0.479,0.105-0.715,0.136v-2.238
		c0.689-0.201,1.342-0.46,1.953-0.775c0.613-0.314,1.164-0.659,1.658-1.034H30.079z"/>
	<path fill="#ED1C24" d="M224.566,155.214h1.662v-2.437c-0.115,0.209-0.236,0.425-0.368,0.64c-0.134,0.219-0.273,0.429-0.418,0.638
		c-0.146,0.211-0.295,0.41-0.444,0.605C224.851,154.859,224.705,155.041,224.566,155.214 M227.628,150.822v4.392h0.837v1.146h-0.837
		v1.429h-1.399v-1.429h-3.039v-1.2c0.27-0.301,0.55-0.629,0.837-0.986c0.29-0.362,0.565-0.729,0.838-1.109
		c0.268-0.379,0.517-0.758,0.751-1.144c0.229-0.385,0.429-0.75,0.589-1.099H227.628z M221.323,150.663v7.126h-1.532v-5.396
		c-0.085,0.078-0.184,0.147-0.302,0.214c-0.114,0.065-0.237,0.125-0.366,0.183c-0.127,0.048-0.263,0.096-0.402,0.132
		c-0.141,0.04-0.275,0.063-0.412,0.08v-1.294c0.397-0.115,0.774-0.265,1.126-0.446c0.354-0.179,0.673-0.379,0.957-0.598H221.323z
		 M213.117,155.214h1.661v-2.437c-0.111,0.209-0.233,0.425-0.37,0.64c-0.13,0.219-0.269,0.429-0.414,0.638
		c-0.146,0.211-0.294,0.41-0.443,0.605C213.401,154.859,213.258,155.041,213.117,155.214z M216.18,150.822v4.392h0.837v1.146h-0.837
		v1.429h-1.401v-1.429h-3.037v-1.2c0.271-0.301,0.548-0.629,0.837-0.986c0.287-0.362,0.567-0.729,0.838-1.109
		c0.267-0.379,0.518-0.758,0.751-1.144c0.229-0.385,0.426-0.75,0.588-1.099H216.18z M206.398,157.56v-1.335
		c0.465,0.341,1.008,0.508,1.632,0.508c0.395,0,0.697-0.083,0.915-0.253c0.221-0.165,0.327-0.4,0.327-0.701
		c0-0.313-0.135-0.552-0.405-0.72c-0.271-0.169-0.644-0.257-1.114-0.257h-0.644v-1.172h0.596c0.906,0,1.359-0.301,1.359-0.904
		c0-0.57-0.348-0.849-1.046-0.849c-0.464,0-0.92,0.149-1.357,0.45v-1.256c0.488-0.245,1.059-0.368,1.707-0.368
		c0.714,0,1.269,0.163,1.664,0.484c0.399,0.314,0.6,0.735,0.6,1.245c0,0.913-0.463,1.482-1.388,1.712v0.021
		c0.49,0.063,0.883,0.243,1.166,0.538c0.286,0.297,0.43,0.662,0.43,1.092c0,0.654-0.24,1.164-0.717,1.545
		c-0.475,0.38-1.134,0.567-1.973,0.567C207.434,157.908,206.848,157.795,206.398,157.56z M203.837,153.152
		c0-0.176-0.023-0.345-0.069-0.501c-0.046-0.159-0.106-0.295-0.188-0.408c-0.08-0.111-0.178-0.203-0.297-0.267
		c-0.115-0.066-0.245-0.1-0.384-0.1c-0.132,0-0.254,0.025-0.368,0.083c-0.11,0.064-0.208,0.142-0.288,0.245
		c-0.081,0.102-0.144,0.222-0.191,0.365c-0.046,0.142-0.063,0.295-0.063,0.46c0,0.182,0.018,0.345,0.063,0.482
		c0.048,0.14,0.113,0.263,0.194,0.362c0.082,0.092,0.18,0.17,0.299,0.22c0.114,0.05,0.244,0.071,0.39,0.071
		c0.136,0,0.257-0.025,0.37-0.079c0.109-0.05,0.202-0.126,0.283-0.212c0.079-0.098,0.14-0.201,0.181-0.324
		C203.815,153.427,203.837,153.296,203.837,153.152z M205.387,153.967c0,0.622-0.067,1.174-0.205,1.664
		c-0.136,0.488-0.333,0.898-0.595,1.233c-0.26,0.339-0.578,0.596-0.955,0.779c-0.377,0.175-0.801,0.265-1.279,0.265
		c-0.567,0-1.06-0.09-1.472-0.269v-1.266c0.365,0.241,0.807,0.358,1.324,0.358c0.527,0,0.938-0.177,1.237-0.534
		c0.298-0.364,0.447-0.88,0.452-1.562l-0.029-0.015c-0.308,0.459-0.776,0.688-1.402,0.688c-0.287,0-0.553-0.05-0.79-0.159
		c-0.244-0.105-0.452-0.255-0.629-0.446c-0.177-0.186-0.314-0.41-0.412-0.678c-0.102-0.261-0.147-0.548-0.147-0.86
		c0-0.371,0.062-0.703,0.178-1.005c0.121-0.301,0.288-0.56,0.503-0.774c0.216-0.22,0.477-0.387,0.774-0.507
		c0.303-0.115,0.635-0.177,1.004-0.177c0.378,0,0.718,0.073,1.019,0.223c0.302,0.146,0.556,0.357,0.772,0.64
		c0.212,0.279,0.372,0.62,0.485,1.022C205.331,152.994,205.387,153.455,205.387,153.967z M195.068,157.609v-1.313
		c0.475,0.293,0.983,0.437,1.521,0.437c0.406,0,0.723-0.094,0.951-0.286c0.229-0.195,0.342-0.455,0.342-0.785
		c0-0.694-0.485-1.039-1.461-1.039c-0.359,0-0.775,0.032-1.245,0.088l0.266-3.888h3.687v1.254h-2.518l-0.096,1.395
		c0.25-0.023,0.461-0.03,0.645-0.03c0.715,0,1.277,0.186,1.68,0.564c0.405,0.375,0.609,0.881,0.609,1.515
		c0,0.705-0.24,1.277-0.722,1.724c-0.485,0.446-1.138,0.665-1.965,0.665C196.091,157.908,195.525,157.813,195.068,157.609z
		 M192.698,150.663v7.126h-1.53v-5.396c-0.084,0.078-0.186,0.147-0.301,0.214c-0.113,0.065-0.235,0.125-0.365,0.183
		c-0.132,0.048-0.264,0.096-0.405,0.132c-0.136,0.04-0.276,0.063-0.412,0.08v-1.294c0.396-0.115,0.774-0.265,1.128-0.446
		c0.354-0.179,0.674-0.379,0.957-0.598H192.698z M184.544,157.908c-0.255,0-0.465-0.073-0.631-0.229
		c-0.172-0.16-0.253-0.349-0.253-0.576c0-0.233,0.086-0.425,0.259-0.574c0.171-0.149,0.389-0.223,0.647-0.223
		c0.265,0,0.479,0.077,0.646,0.225c0.165,0.149,0.25,0.343,0.25,0.572c0,0.235-0.087,0.435-0.257,0.582
		C185.039,157.835,184.815,157.908,184.544,157.908z M184.544,154.355c-0.255,0-0.465-0.08-0.631-0.233
		c-0.172-0.155-0.253-0.345-0.253-0.571c0-0.233,0.086-0.425,0.259-0.574c0.171-0.147,0.389-0.221,0.647-0.221
		c0.265,0,0.479,0.073,0.646,0.225c0.165,0.153,0.25,0.341,0.25,0.57c0,0.239-0.087,0.43-0.257,0.579
		C185.039,154.28,184.815,154.355,184.544,154.355z M182.795,157.544c-0.508,0.245-1.175,0.364-1.992,0.364
		c-1.067,0-1.911-0.313-2.521-0.94c-0.615-0.628-0.92-1.467-0.92-2.511c0-1.116,0.343-2.021,1.031-2.716
		c0.687-0.689,1.583-1.038,2.68-1.038c0.682,0,1.255,0.086,1.722,0.259v1.511c-0.467-0.277-0.998-0.417-1.595-0.417
		c-0.654,0-1.182,0.203-1.585,0.616c-0.401,0.41-0.601,0.969-0.601,1.674c0,0.669,0.188,1.209,0.568,1.605
		c0.377,0.403,0.888,0.604,1.532,0.604c0.611,0,1.172-0.149,1.68-0.446V157.544z M172.97,152v1.939h0.681
		c0.336,0,0.607-0.1,0.812-0.293c0.207-0.199,0.309-0.444,0.309-0.731c0-0.614-0.363-0.915-1.093-0.915H172.97z M177.246,157.789
		h-1.805l-1.081-1.794c-0.085-0.135-0.161-0.255-0.234-0.364c-0.074-0.105-0.149-0.197-0.229-0.275
		c-0.073-0.071-0.152-0.135-0.237-0.175c-0.083-0.04-0.172-0.06-0.269-0.06h-0.422v2.668h-1.573v-6.967h2.489
		c1.691,0,2.538,0.63,2.538,1.894c0,0.245-0.039,0.466-0.114,0.671c-0.073,0.208-0.177,0.391-0.313,0.559
		c-0.138,0.165-0.3,0.309-0.494,0.426c-0.193,0.124-0.405,0.218-0.645,0.283v0.021c0.104,0.035,0.204,0.085,0.302,0.159
		c0.098,0.071,0.189,0.155,0.281,0.255c0.091,0.096,0.177,0.201,0.262,0.311c0.082,0.114,0.156,0.224,0.224,0.331L177.246,157.789z"
		/>
	<polygon fill="#ED1C24" points="64.932,72.168 81.033,68.257 126.459,41.37 165.596,63.476 186.298,72.168 127.299,27.82 	"/>
	<polygon fill="#110D3D" points="92.591,123.972 92.591,65.212 126.394,44.983 160.018,65.212 160.018,123.972 	"/>
	<polygon fill="#110D3D" points="164.354,76.761 164.354,126.121 184.919,127.999 184.919,89.444 	"/>
	<polygon fill="#110D3D" points="88.257,76.761 88.257,126.121 67.689,126.121 67.689,89.444 	"/>
	<rect x="120.318" y="95.979" fill="#FFFFFF" width="12.281" height="26.252"/>
	<rect x="120.318" y="61.515" fill="#FFFFFF" width="5.297" height="6.742"/>
	<rect x="127.299" y="61.515" fill="#FFFFFF" width="5.301" height="6.742"/>
	<rect x="120.318" y="69.622" fill="#FFFFFF" width="5.297" height="6.742"/>
	<rect x="127.299" y="69.622" fill="#FFFFFF" width="5.301" height="6.742"/>
	<path fill="#110D3D" d="M36.396,143.42c0,0,82.135-64.952,180.127,0C216.523,143.42,121.927,99.134,36.396,143.42"/>
	<path fill="#ED1C24" d="M52.78,145.113c0,0,67.961-31.717,149.043,0C201.823,145.113,123.551,123.487,52.78,145.113"/>
	<path fill="#110D3D" d="M130.779,105.386c0,0.622-0.503,1.118-1.12,1.118c-0.618,0-1.118-0.496-1.118-1.118
		c0-0.618,0.5-1.12,1.118-1.12C130.276,104.266,130.779,104.768,130.779,105.386"/>
</g>
</svg>
